<?xml version="1.0" encoding="utf-8"?>
<!-- Generator: Adobe Illustrator 25.0.0, SVG Export Plug-In . SVG Version: 6.00 Build 0)  -->
<svg version="1.1" id="图层_1" xmlns="http://www.w3.org/2000/svg" xmlns:xlink="http://www.w3.org/1999/xlink" x="0px" y="0px"
	 viewBox="0 0 10 10" style="enable-background:new 0 0 10 10;" xml:space="preserve">
<style type="text/css">
	.st0{filter:url(#Adobe_OpacityMaskFilter);}
	.st1{fill:#FFFFFF;}
	.st2{mask:url(#bg-mask-0_1_);}
	.st3{fill-rule:evenodd;clip-rule:evenodd;fill:#E6C8A0;}
	.st4{fill-rule:evenodd;clip-rule:evenodd;fill:url(#分组_1_2_);}
</style>
<g transform="translate(0 0)  rotate(0)">
	<defs>
		<filter id="Adobe_OpacityMaskFilter" filterUnits="userSpaceOnUse" x="0.6" y="0.6" width="8.8" height="8.8">
			<feColorMatrix  type="matrix" values="1 0 0 0 0  0 1 0 0 0  0 0 1 0 0  0 0 0 1 0"/>
		</filter>
	</defs>
	<mask maskUnits="userSpaceOnUse" x="0.6" y="0.6" width="8.8" height="8.8" id="bg-mask-0_1_">
		<g class="st0">
			<rect id="path_0_1_" y="0" class="st1" width="10" height="10"/>
		</g>
	</mask>
	<g class="st2">
		<path id="分组_1" class="st3" d="M5,9.4c-0.6,0-1.2-0.1-1.7-0.3c-0.5-0.2-1-0.6-1.4-0.9C1.5,7.7,1.2,7.2,1,6.7
			C0.7,6.2,0.6,5.6,0.6,5S0.7,3.8,1,3.3c0.2-0.5,0.5-1,0.9-1.4c0.4-0.4,0.9-0.7,1.4-1S4.4,0.6,5,0.6s1.2,0.1,1.7,0.3
			c0.5,0.2,1,0.6,1.4,1c0.4,0.4,0.7,0.9,0.9,1.4S9.4,4.4,9.4,5S9.3,6.2,9.1,6.7c-0.2,0.5-0.6,1-0.9,1.4C7.7,8.5,7.3,8.8,6.7,9.1
			S5.6,9.4,5,9.4z M3.1,5.1C3,5,2.9,4.9,2.7,4.9C2.5,4.9,2.4,5,2.2,5.1C2.1,5.2,2.1,5.4,2.1,5.5S2.1,5.8,2.2,6l1.4,1.4
			c0.1,0.1,0.3,0.2,0.5,0.2c0.2,0,0.3-0.1,0.5-0.2l3.2-3.2C7.9,4,8,3.9,8,3.7c0-0.2-0.1-0.3-0.2-0.4C7.7,3.1,7.5,3.1,7.4,3.1
			C7.2,3.1,7,3.1,6.9,3.3L4.1,6.1L3.1,5.1z"/>
		
			<linearGradient id="分组_1_2_" gradientUnits="userSpaceOnUse" x1="-173.7121" y1="137.6725" x2="-172.6019" y2="135.9328" gradientTransform="matrix(8.77 0 0 -8.81 1523.5498 1210.1289)">
			<stop  offset="0" style="stop-color:#D80C18;stop-opacity:1.000000e-02"/>
			<stop  offset="1" style="stop-color:#D80C18"/>
		</linearGradient>
		<path id="分组_1_1_" class="st4" d="M5,9.4c-0.6,0-1.2-0.1-1.7-0.3c-0.5-0.2-1-0.6-1.4-0.9C1.5,7.7,1.2,7.2,1,6.7
			C0.7,6.2,0.6,5.6,0.6,5S0.7,3.8,1,3.3c0.2-0.5,0.5-1,0.9-1.4c0.4-0.4,0.9-0.7,1.4-1S4.4,0.6,5,0.6s1.2,0.1,1.7,0.3
			c0.5,0.2,1,0.6,1.4,1c0.4,0.4,0.7,0.9,0.9,1.4S9.4,4.4,9.4,5S9.3,6.2,9.1,6.7c-0.2,0.5-0.6,1-0.9,1.4C7.7,8.5,7.3,8.8,6.7,9.1
			S5.6,9.4,5,9.4z M3.1,5.1C3,5,2.9,4.9,2.7,4.9C2.5,4.9,2.4,5,2.2,5.1C2.1,5.2,2.1,5.4,2.1,5.5S2.1,5.8,2.2,6l1.4,1.4
			c0.1,0.1,0.3,0.2,0.5,0.2c0.2,0,0.3-0.1,0.5-0.2l3.2-3.2C7.9,4,8,3.9,8,3.7c0-0.2-0.1-0.3-0.2-0.4C7.7,3.1,7.5,3.1,7.4,3.1
			C7.2,3.1,7,3.1,6.9,3.3L4.1,6.1L3.1,5.1z"/>
	</g>
</g>
</svg>
